<svg xmlns="http://www.w3.org/2000/svg" width="420" height="325" viewBox="0 0 420 325"><style>.st0{fill:#3e253c}</style><g id="WORDPRESS"><path class="st0" d="M35 271c0 1.1.9 2 2 2h46V94H35v177zM385 70H35v20h350V70zM230.9 82h-42.7v-4h42.7v4zm-16.4 145.4l1.1-.1 7.3 9 11.4-4.2-.2-11.6.9-.6c2.4-1.7 4.8-3.6 6.9-5.8l.8-.8 11.4 2.2 6.1-10.5-7.6-8.8.3-1c.8-2.9 1.3-5.8 1.5-8.8l.1-1.1 10.2-5.6-2.1-12-11.5-1.8-.4-1c-1.2-2.7-2.7-5.3-4.5-7.8l-.6-.9 4.2-10.8-9.3-7.8-9.9 6-1-.5c-2.7-1.3-5.5-2.3-8.4-3.1l-1.1-.3-3.8-11h-12.2l-3.8 11-1.1.3c-2.9.7-5.7 1.8-8.4 3.1l-1 .5-9.9-6-9.3 7.8 4.2 10.8-.6.9c-1.7 2.4-3.3 5-4.5 7.8l-.4 1-11.5 1.8-2.1 12 10.2 5.6.1 1.1c.2 3 .7 6 1.5 8.8l.3 1-7.6 8.8 6.1 10.5 11.4-2.2.8.8c2.1 2.2 4.4 4.1 6.9 5.8l.9.6-.2 11.6 11.4 4.2 7.3-9 1.1.1c2.6.3 5.6.3 8.6 0zM193 183c0-9.4 7.6-17 17-17s17 7.6 17 17-7.6 17-17 17-17-7.6-17-17zm190 90c1.1 0 2-.9 2-2V94h-49v179h47z"/><path class="st0" d="M332 273V94H87v179h114v4H37c-3.3 0-6-2.7-6-6V57c0-3.3 2.7-6 6-6h171V0H0v325h208v-52h124zm-125.8-41.5l-6 7.4c-1 1.3-2.8 1.8-4.3 1.2l-11.6-4.2c-1.6-.6-2.6-2.1-2.5-3.7l.2-9.5c-2-1.5-4-3.1-5.8-4.9l-9.4 1.8c-1.6.3-3.3-.5-4.1-1.9l-6.2-10.7c-.8-1.4-.7-3.2.4-4.5l6.3-7.2c-.6-2.4-1.1-5-1.3-7.5l-8.4-4.6c-1.4-.8-2.2-2.4-1.9-4.1l2.1-12.1c.3-1.6 1.6-2.9 3.2-3.2l9.4-1.5c1.1-2.3 2.4-4.5 3.8-6.6l-3.4-8.9c-.6-1.5-.1-3.3 1.1-4.4l9.4-7.9c1.2-1 3.1-1.2 4.5-.4l8.2 4.9c2.3-1.1 4.7-1.9 7.2-2.6l3.1-9c.5-1.6 2-2.6 3.7-2.6h12.3c1.7 0 3.1 1.1 3.7 2.6l3.1 9c2.5.7 4.8 1.5 7.2 2.6l8.2-4.9c1.4-.8 3.3-.7 4.5.4l9.4 7.9c1.3 1.1 1.7 2.8 1.1 4.4l-3.4 8.9c1.4 2.1 2.7 4.3 3.8 6.6l9.4 1.5c1.6.3 2.9 1.5 3.2 3.2l2.1 12.1c.3 1.6-.5 3.3-1.9 4.1l-8.4 4.6c-.2 2.5-.7 5-1.3 7.5l6.3 7.2c1.1 1.2 1.3 3 .4 4.5l-6.2 10.7c-.7 1.2-2 1.9-3.4 1.9-.2 0-.5 0-.7-.1l-9.4-1.8c-1.8 1.8-3.8 3.4-5.8 4.9l.2 9.6c0 1.7-1 3.1-2.5 3.7l-11.6 4.2c-.4.2-.9.2-1.3.2-1.2 0-2.3-.5-3-1.4l-6-7.4c-2.6.2-5.2.2-7.7 0z"/><path class="st0" d="M212 0v55H37c-1.1 0-2 .9-2 2v9h350v-9c0-1.1-.9-2-2-2H219v-4h164c3.3 0 6 2.7 6 6v214c0 3.3-2.7 6-6 6H212v48h208V0H212zM43 63c-1.1 0-2-.9-2-2s.9-2 2-2 2 .9 2 2-.9 2-2 2zm8 0c-1.1 0-2-.9-2-2s.9-2 2-2 2 .9 2 2-.9 2-2 2zm8 0c-1.1 0-2-.9-2-2s.9-2 2-2 2 .9 2 2-.9 2-2 2z"/><path class="st0" d="M223 183c0-7.2-5.8-13-13-13s-13 5.8-13 13 5.8 13 13 13 13-5.8 13-13z"/></g></svg>