<svg xmlns="http://www.w3.org/2000/svg" width="420" height="325" viewBox="0 0 420 325"><style>.st0{fill:#3e253c}</style><g id="ECOMMERCE"><circle class="st0" cx="210" cy="210" r="2"/><circle class="st0" cx="168" cy="225" r="2"/><circle class="st0" cx="252" cy="223" r="2"/><circle class="st0" cx="126" cy="233" r="2"/><path class="st0" d="M81 267h258V163H81v104zm213-85c3.3 0 6 2.7 6 6s-2.7 6-6 6-6-2.7-6-6 2.7-6 6-6zm-7.3 9.5l2.6 3.1-30 25-2.6-3.1 30-25zM252 217c3.3 0 6 2.7 6 6s-2.7 6-6 6-6-2.7-6-6 2.7-6 6-6zm-34.3-7.9l27 10-1.4 3.8-27-10 1.4-3.8zM210 204c3.3 0 6 2.7 6 6s-2.7 6-6 6-6-2.7-6-6 2.7-6 6-6zm-7.6 7.1l1.2 3.8-28 9-1.2-3.8 28-9zM168 219c3.3 0 6 2.7 6 6s-2.7 6-6 6-6-2.7-6-6 2.7-6 6-6zm-8.3 6l.6 4-26 4-.6-4 26-4zm-33.7 2c3.3 0 6 2.7 6 6s-2.7 6-6 6-6-2.7-6-6 2.7-6 6-6z"/><circle class="st0" cx="294" cy="188" r="2"/><path class="st0" d="M226 79h20v3h-20zm-52 0h20v3h-20zm33 17h6v2h-6zm67 47h56v6h-56zm-52-67h-24v16h24zm0-4c1.9 0 3.4 1.3 3.9 3H246v-5h-72v5h20.1c.4-1.7 2-3 3.9-3h24zm0 22v-2zM81 130h258v-11H81v11zm24-8c1.1 0 2 .9 2 2s-.9 2-2 2-2-.9-2-2 .9-2 2-2zm-8 0c1.1 0 2 .9 2 2s-.9 2-2 2-2-.9-2-2 .9-2 2-2zm-8 0c1.1 0 2 .9 2 2s-.9 2-2 2-2-.9-2-2 .9-2 2-2z"/><path class="st0" d="M347.2 102H72.8c-1.5 0-2.8 1.2-2.8 2.7V267h7V115h266v152h7V104.7c0-1.5-1.3-2.7-2.8-2.7z"/><path class="st0" d="M81 159h258v-25H81v25zm189-20h64v14h-64v-14zm-174-2.5c5.5 0 10 4.5 10 10s-4.5 10-10 10-10-4.5-10-10 4.5-10 10-10zM182 54h6v4h-6z"/><path class="st0" d="M212 0v42h-4V0H0v325h208v-40h4v40h208V0H212zm5 57h24v4h-24v-4zm13-2v-4h11v4h-11zm166 222c0 4.4-3.6 8-8 8H208v-4h180c2.2 0 4-1.8 4-4v-6H28v6c0 2.2 1.8 4 4 4h170v4H32c-4.4 0-8-3.6-8-8v-10h42V104.7c0-3.6 3.1-6.7 6.8-6.7H203v-2h-5c-2.2 0-4-1.8-4-4v-6h-20c-2.2 0-4-1.8-4-4V46c0-2.2 1.8-4 4-4h38v4h-38v20h72V46h-27v-4h27c2.2 0 4 1.8 4 4v36c0 2.2-1.8 4-4 4h-20v6c0 2.2-1.8 4-4 4h-5v2h130.2c3.7 0 6.8 3 6.8 6.7V267h42v10zM192 50v12h-14V50h14z"/><path class="st0" d="M96 152.5c3.3 0 6-2.7 6-6s-2.7-6-6-6-6 2.7-6 6 2.7 6 6 6z"/></g></svg>