<svg xmlns="http://www.w3.org/2000/svg" width="56" height="50" viewBox="0 0 56 50"><g fill="#3E243C"><circle cx="28" cy="25" r="2"/><path d="M28 2C15.3 2 5 12.3 5 25s10.3 23 23 23 23-10.3 23-23S40.7 2 28 2zm14.5 23.6l-1.9 1c-.1.5-.1 1-.3 1.4l1.4 1.6c.4.5.5 1.2.2 1.7L40.3 34c-.3.5-.8.7-1.3.7h-.3l-2.1-.4c-.4.3-.7.7-1.1.9v2.2c0 .6-.4 1.2-1 1.4L31.7 40c-.2.1-.3.1-.5.1-.4 0-.9-.2-1.1-.5l-1.4-1.7h-1.5l-1.4 1.7c-.4.5-1.1.7-1.6.5L21.3 39c-.6-.2-1-.8-1-1.4v-2.2c-.4-.3-.8-.6-1.1-.9l-2.4.4c-.5 0-1-.3-1.3-.7L14 31.4c-.3-.5-.2-1.2.2-1.7l1.4-1.6c-.1-.5-.2-1-.3-1.4l-1.9-1c-.5-.3-.8-.9-.7-1.5l.5-3.1c.1-.6.6-1.1 1.2-1.2l2.1-.3c.2-.4.5-.9.7-1.3l-.8-2c-.2-.6-.1-1.3.4-1.7l2.4-2c.5-.4 1.2-.4 1.7-.1l1.8 1.1c.5-.2.9-.4 1.4-.5l.7-2c.2-.6.8-1 1.4-1h3.1c.6 0 1.2.4 1.4 1l.7 2c.5.1.9.3 1.4.5l1.8-1.1c.5-.3 1.2-.3 1.7.1l2.4 2c.5.4.7 1.1.4 1.7l-.8 2c.3.4.5.8.7 1.3l2.1.3c.6.1 1.1.6 1.2 1.2l.5 3.1c.6.5.3 1.1-.3 1.4z"/><path d="M38 21.2l-.2-.5c-.3-.7-.7-1.3-1.1-1.9l-.3-.4 1-2.7-1.8-1.5-2.4 1.5-.5-.2c-.6-.3-1.3-.6-2-.7l-.5-.1-.9-2.7h-2.4l-.9 2.7-.5.1c-.7.2-1.4.4-2 .7l-.5.2-2.4-1.5-1.8 1.5 1 2.7-.3.4c-.4.6-.8 1.2-1.1 1.9l-.4.5-2.8.4-.4 2.4 2.5 1.4v.5c.1.7.2 1.4.4 2.1l.1.5-1.8 2.2 1.2 2 2.8-.5.4.4c.5.5 1.1 1 1.7 1.4l.4.3-.1 2.8 2.2.8 1.8-2.2.5.1c.7.1 1.5.1 2.2 0l.5-.1 1.8 2.2 2.2-.8-.1-2.8.5-.3c.6-.4 1.1-.9 1.7-1.4l.4-.4 2.8.5 1.2-2-1.9-2.1.1-.5c.2-.7.3-1.4.4-2.1v-.5l2.5-1.4-.4-2.3-2.8-.6zM28 29c-2.2 0-4-1.8-4-4s1.8-4 4-4 4 1.8 4 4-1.8 4-4 4z"/><path d="M0 0v50h56V0H0zm28 50C14.2 50 3 38.8 3 25S14.2 0 28 0s25 11.2 25 25-11.2 25-25 25z"/></g></svg>