<svg xmlns="http://www.w3.org/2000/svg" width="56" height="50" viewBox="0 0 56 50"><g fill="#3E243C"><path d="M30 34c-.6 0-1 .4-1 1s.4 1 1 1 1-.4 1-1-.4-1-1-1zm-10 0c-.6 0-1 .4-1 1s.4 1 1 1 1-.4 1-1-.4-1-1-1z"/><path d="M28 2C15.3 2 5 12.3 5 25s10.3 23 23 23 23-10.3 23-23S40.7 2 28 2zm-8 36c-1.7 0-3-1.3-3-3s1.3-3 3-3 3 1.3 3 3-1.3 3-3 3zm10 0c-1.7 0-3-1.3-3-3s1.3-3 3-3 3 1.3 3 3-1.3 3-3 3zm10-23h-2.3L33 30.3c-.1.4-.5.7-1 .7H18c-.5 0-.8-.3-1-.7l-3-11c-.1-.3 0-.6.2-.9.2-.2.5-.4.8-.4h16c.6 0 1 .4 1 1s-.4 1-1 1H16.3l2.5 9h12.5L36 13.7c.1-.4.5-.7 1-.7h3c.6 0 1 .4 1 1s-.4 1-1 1z"/><path d="M0 0v50h56V0H0zm28 50C14.2 50 3 38.8 3 25S14.2 0 28 0s25 11.2 25 25-11.2 25-25 25z"/></g></svg>